<?xml version="1.0" encoding="UTF-8" standalone="no"?>
<!DOCTYPE svg PUBLIC "-//W3C//DTD SVG 1.1//EN" "http://www.w3.org/Graphics/SVG/1.1/DTD/svg11.dtd">
<svg width="100%" height="100%" viewBox="0 0 127 127" version="1.1" xmlns="http://www.w3.org/2000/svg" xmlns:xlink="http://www.w3.org/1999/xlink" xml:space="preserve" xmlns:serif="http://www.serif.com/" style="fill-rule:evenodd;clip-rule:evenodd;stroke-linejoin:round;stroke-miterlimit:2;">
    <g transform="matrix(0.150633,0,0,0.150633,-146.144,-45.7189)">
        <path d="M1271.76,1103.75L1270.93,1046.33L1175.67,967.805L1065.29,822.812L1008.25,720.334L1024.16,634.633L1094.78,613.384L1167.72,657.983L1209.36,705.372L1179.01,589.412L1146.28,463.147L1152.23,374.073L1204.39,318.631L1281.61,364.78L1318.66,445.961L1335.22,543.905L1374.84,505.05L1427.55,508.522L1460.59,533.139L1476.1,571.643L1517.52,513.256L1594.21,519.332L1629.17,567.26L1637.05,605.554L1690.38,561.672L1763.08,601.195L1760.56,697.325L1753.28,813.153L1694.54,926.631L1651.26,993.224L1662.41,1084.96L1554.37,1111.05L1513.84,1066.04L1459.48,1109.23L1327.04,1121.26L1271.76,1103.75Z" style="fill:white;"/>
        <path d="M1310.77,1066.38L1302.74,1027.31L1227.59,959.279L1131.8,839.629L1065.53,749.681L1052.42,684.561L1107.35,665.589L1178.69,722.504L1238.33,779.243L1235.42,669.061L1196.01,533.876L1181.6,440.491L1188.88,383.401L1240.54,381.367L1279.6,463.846L1288.33,541.17L1317.7,633.853L1349.63,661.03L1357.52,609.025L1379.56,551.935L1432.87,556.494L1461.87,611.345L1472.71,653.19L1490.55,651.985L1496.62,598.549L1537.6,553.934L1584.84,568.347L1615.69,611.722L1634.14,667.974L1660.69,623.426L1705.96,618.58L1730.91,652.635L1719.34,723.24L1691.42,841.242L1631.85,947.732L1615.41,1021.48L1623.7,1069.11L1570.62,1075.76L1518.79,1015.69L1489.71,1035.11L1450.54,1062.9L1310.77,1066.38Z" style="fill:rgb(160,174,222);"/>
        <path d="M1363.07,934.974L1358.6,853.816L1366.16,781.482L1385.52,769.649L1399.27,786.741L1399.71,833.68L1400.97,885.879L1401.88,934.974L1393.94,956.043L1370.17,961.206L1363.07,934.974Z" style="fill:white;"/>
        <path d="M1457.59,811.666L1456.76,782.957L1469.22,758.522L1490.09,764.178L1493.96,800.451L1493.75,874.785L1496.78,933.959L1483.61,957.556L1465.32,954.856L1459.75,929.223L1459.67,861.158L1457.59,811.666Z" style="fill:white;"/>
        <path d="M1582.78,955.311L1563.96,948.793L1557.71,925.852L1558.67,877.525L1558.17,818.152L1557.84,777.222L1578.5,755.367L1597.2,762.516L1600.12,786.775L1600.57,830.405L1599.99,860.703L1601.69,898.805L1595.24,937.45L1582.78,955.311Z" style="fill:white;"/>
    </g>
</svg>
