<?xml version="1.0" encoding="UTF-8" standalone="no"?><!DOCTYPE svg PUBLIC "-//W3C//DTD SVG 1.1//EN" "http://www.w3.org/Graphics/SVG/1.1/DTD/svg11.dtd"><svg width="100%" height="100%" viewBox="0 0 530 530" version="1.1" xmlns="http://www.w3.org/2000/svg" xmlns:xlink="http://www.w3.org/1999/xlink" xml:space="preserve" xmlns:serif="http://www.serif.com/" style="fill-rule:evenodd;clip-rule:evenodd;stroke-linejoin:round;stroke-miterlimit:2;"><rect id="Artboard1" x="0" y="0" width="529.167" height="529.167" style="fill:none;"/><g id="Artboard11" serif:id="Artboard1"><g><path d="M189.376,497.503l-0.503,-35.219l-58.435,-48.165l-67.698,-88.934l-34.986,-62.857l9.757,-52.566l43.312,-13.033l44.744,27.355l25.538,29.067l-18.615,-71.126l-20.076,-77.447l3.649,-54.635l31.994,-34.006l47.361,28.306l22.726,49.794l10.162,60.075l24.296,-23.832l32.334,2.13l20.262,15.099l9.515,23.617l25.405,-35.813l47.044,3.727l21.441,29.398l4.835,23.488l32.712,-26.916l44.591,24.242l-1.55,58.963l-4.465,71.045l-36.029,69.604l-26.544,40.846l6.836,56.268l-66.268,16.003l-24.86,-27.61l-33.34,26.492l-81.235,7.377l-33.91,-10.737Z" style="fill:#fff;"/><path d="M213.309,474.578l-4.927,-23.961l-46.098,-41.728l-58.755,-73.389l-40.647,-55.171l-8.038,-39.943l33.689,-11.637l43.758,34.91l36.583,34.802l-1.786,-67.582l-24.173,-82.918l-8.838,-57.279l4.465,-35.017l31.687,-1.248l23.957,50.59l5.358,47.428l18.015,56.849l19.585,16.669l4.834,-31.898l13.519,-35.017l32.703,2.796l17.785,33.644l6.652,25.666l10.939,-0.739l3.727,-32.776l25.133,-27.365l28.977,8.84l18.924,26.605l11.315,34.503l16.286,-27.324l27.766,-2.972l15.303,20.888l-7.098,43.307l-17.121,72.378l-36.539,65.318l-10.085,45.234l5.083,29.215l-32.557,4.079l-31.794,-36.846l-17.834,11.912l-24.023,17.048l-85.73,2.129Z" style="fill:#a0aede;"/><path d="M245.386,393.982l-2.744,-49.78l4.638,-44.368l11.877,-7.258l8.433,10.484l0.27,28.791l0.773,32.017l0.561,30.114l-4.873,12.922l-14.583,3.167l-4.352,-16.089Z" style="fill:#fff;"/><path d="M303.362,318.348l-0.512,-17.609l7.645,-14.987l12.801,3.469l2.371,22.248l-0.126,45.595l1.859,36.295l-8.081,14.473l-11.216,-1.656l-3.416,-15.722l-0.049,-41.749l-1.276,-30.357Z" style="fill:#fff;"/><path d="M380.148,406.455l-11.546,-3.998l-3.83,-14.071l0.59,-29.642l-0.309,-36.418l-0.203,-25.105l12.675,-13.405l11.468,4.385l1.789,14.88l0.28,26.761l-0.357,18.584l1.045,23.37l-3.956,23.704l-7.646,10.955Z" style="fill:#fff;"/></g></g></svg>